<svg xmlns="http://www.w3.org/2000/svg" viewBox="0 0 1920 1080" width="1920" height="1080">
  <defs>
    <linearGradient id="base" x1="0" y1="0" x2="1" y2="1">
      <stop offset="0" stop-color="#F9F7FF"/>
      <stop offset="0.42" stop-color="#FFFFFF"/>
      <stop offset="1" stop-color="#ECE8FF"/>
    </linearGradient>
    <radialGradient id="violet" cx="0" cy="0" r="1" gradientUnits="userSpaceOnUse" gradientTransform="translate(1640 260) rotate(25) scale(650 460)">
      <stop offset="0" stop-color="#8B5CF6" stop-opacity="0.34"/>
      <stop offset="0.58" stop-color="#C7B8FF" stop-opacity="0.2"/>
      <stop offset="1" stop-color="#FFFFFF" stop-opacity="0"/>
    </radialGradient>
    <radialGradient id="lilac" cx="0" cy="0" r="1" gradientUnits="userSpaceOnUse" gradientTransform="translate(230 830) rotate(-15) scale(720 460)">
      <stop offset="0" stop-color="#B8A9FF" stop-opacity="0.44"/>
      <stop offset="0.7" stop-color="#EEE9FF" stop-opacity="0.18"/>
      <stop offset="1" stop-color="#FFFFFF" stop-opacity="0"/>
    </radialGradient>
    <filter id="blur"><feGaussianBlur stdDeviation="18"/></filter>
  </defs>
  <rect width="1920" height="1080" fill="url(#base)"/>
  <rect width="1920" height="1080" fill="url(#violet)"/>
  <rect width="1920" height="1080" fill="url(#lilac)"/>
  <g fill="none" stroke="#fff" stroke-width="2.4" opacity="0.68">
    <path d="M-120 318 C220 450 520 328 736 152"/>
    <path d="M-90 810 C205 690 420 740 590 930 C740 1098 940 950 1060 1020"/>
    <path d="M1320 -80 C1390 165 1608 214 1940 112"/>
    <path d="M1200 955 C1288 728 1476 578 1744 602 C1840 610 1904 650 1988 722"/>
  </g>
  <g filter="url(#blur)" opacity="0.62">
    <circle cx="310" cy="620" r="70" fill="#A992FF"/>
    <circle cx="1570" cy="388" r="82" fill="#9B7CFF"/>
  </g>
  <path d="M310 620 C560 430 790 466 1010 560 C1238 658 1395 590 1570 388" fill="none" stroke="#8B5CF6" stroke-opacity="0.22" stroke-width="3"/>
  <path d="M220 750 C500 856 730 806 920 706 C1180 570 1370 720 1660 620" fill="none" stroke="#FFFFFF" stroke-opacity="0.54" stroke-width="2"/>
</svg>
