<svg xmlns="http://www.w3.org/2000/svg" viewBox="0 0 1920 1080" width="1920" height="1080">
  <defs>
    <radialGradient id="cornerA" cx="0" cy="0" r="1" gradientUnits="userSpaceOnUse" gradientTransform="translate(105 130) rotate(35) scale(720 520)">
      <stop offset="0" stop-color="#B8A9FF" stop-opacity="0.42"/>
      <stop offset="0.58" stop-color="#DCD7FF" stop-opacity="0.24"/>
      <stop offset="1" stop-color="#F8F7FF" stop-opacity="0"/>
    </radialGradient>
    <radialGradient id="cornerB" cx="0" cy="0" r="1" gradientUnits="userSpaceOnUse" gradientTransform="translate(1770 770) rotate(-28) scale(690 500)">
      <stop offset="0" stop-color="#A897FF" stop-opacity="0.48"/>
      <stop offset="0.55" stop-color="#D7D0FF" stop-opacity="0.28"/>
      <stop offset="1" stop-color="#F8F7FF" stop-opacity="0"/>
    </radialGradient>
    <radialGradient id="bottom" cx="0" cy="0" r="1" gradientUnits="userSpaceOnUse" gradientTransform="translate(700 1040) rotate(-8) scale(840 300)">
      <stop offset="0" stop-color="#DFDAFF" stop-opacity="0.52"/>
      <stop offset="1" stop-color="#FBFAFF" stop-opacity="0"/>
    </radialGradient>
    <linearGradient id="base" x1="0" y1="0" x2="1" y2="1">
      <stop offset="0" stop-color="#ECEAFF"/>
      <stop offset="0.38" stop-color="#FBFAFF"/>
      <stop offset="0.68" stop-color="#F7F5FF"/>
      <stop offset="1" stop-color="#E6E1FF"/>
    </linearGradient>
    <filter id="softBlur" x="-20%" y="-20%" width="140%" height="140%">
      <feGaussianBlur stdDeviation="12"/>
    </filter>
  </defs>
  <rect width="1920" height="1080" fill="url(#base)"/>
  <rect width="1920" height="1080" fill="url(#cornerA)"/>
  <rect width="1920" height="1080" fill="url(#cornerB)"/>
  <rect width="1920" height="1080" fill="url(#bottom)"/>

  <g opacity="0.72" fill="none" stroke="#FFFFFF" stroke-width="3">
    <path d="M-210 205 C130 370 520 430 770 145"/>
    <path d="M-160 735 C130 665 315 790 430 918 C557 1062 748 905 862 1016"/>
    <path d="M1370 -80 C1395 110 1550 160 1738 113"/>
    <path d="M1392 960 C1358 725 1490 590 1690 555 C1810 535 1885 558 1980 620"/>
    <path d="M1484 1088 C1436 788 1554 658 1748 622 C1830 607 1900 622 1988 668" opacity="0.55"/>
  </g>

  <g filter="url(#softBlur)" opacity="0.6">
    <circle cx="248" cy="342" r="58" fill="#AFA1FF"/>
    <circle cx="1468" cy="720" r="62" fill="#AFA1FF"/>
  </g>
  <g opacity="0.74">
    <circle cx="248" cy="342" r="54" fill="#B9AEFF" fill-opacity="0.64"/>
    <circle cx="1468" cy="720" r="58" fill="#B4A7FF" fill-opacity="0.62"/>
  </g>

  <path d="M248 342 C520 393 650 475 895 546 C1110 608 1280 676 1468 720" fill="none" stroke="#FFFFFF" stroke-width="2" opacity="0.44"/>
  <path d="M226 355 C520 482 620 764 820 820 C1040 880 1275 784 1468 720" fill="none" stroke="#FFFFFF" stroke-width="1.5" opacity="0.28"/>

  <circle cx="1090" cy="126" r="320" fill="#FFFFFF" fill-opacity="0.13"/>
  <circle cx="-10" cy="-35" r="690" fill="#FFFFFF" fill-opacity="0.18"/>
  <circle cx="1810" cy="1010" r="540" fill="#9B89F5" fill-opacity="0.08"/>
</svg>
