<svg width="212" height="54" viewBox="0 0 212 54" fill="none" xmlns="http://www.w3.org/2000/svg">
<path d="M158.784 10.703C161.783 10.7271 163.663 11.1367 166.571 11.8809C168.156 11.1988 173.437 10.4715 175.004 11.1293C176.002 12.4708 175.463 39.0197 175.143 42.457C174.642 47.8504 169.051 52.9011 163.473 53.0622C156.361 53.2678 153.257 53.8518 147.553 49.1686C148.02 47.4477 148.323 45.0756 148.605 43.2677C149.964 42.9603 156.681 45.7546 159.618 45.6188C163.447 45.4417 163.963 45.3273 166.866 42.6798C167.484 40.9045 167.564 38.5944 167.679 36.7016C165.612 38.8716 162.624 40.5747 159.6 40.8409C156.253 41.1316 152.926 40.0885 150.344 37.938C143.196 31.9083 143.419 18.545 151.067 13.0151C153.568 11.2085 155.794 10.9363 158.784 10.703ZM156.517 19.0767C152.252 24.2688 153.206 34.3097 161 33.3777C170.608 31.3974 169.408 17.9642 160.218 17.8221C158.974 18.2096 157.74 18.6279 156.517 19.0767Z" fill="#8130C0"/>
<path d="M13.8007 0.158847C17.3832 -0.210424 21.0029 0.0654379 24.4882 0.972835C32.0982 2.93108 30.1246 5.84291 28.5046 11.9622C24.1486 9.08783 21.848 7.79166 16.3175 7.87917C15.2026 7.89046 11.4726 8.24895 10.8825 9.27824C9.24153 12.1398 10.2859 14.2653 13.0669 15.0534C20.1878 17.1205 31.5162 17.6021 31.9209 27.4267C32.4454 40.1592 25.1712 41.1554 15.0261 41.7459C10.5393 41.3731 6.37228 40.9329 2.23938 38.9152C-1.4629 37.1078 0.190368 32.2639 1.77028 29.4904C5.96885 31.7571 12.7196 34.0636 17.6245 33.6222C19.3622 33.4657 24.6013 31.5924 23.5726 29.2084C21.4751 25.0096 14.7215 25.3586 10.8384 24.1109C6.64878 22.7647 1.08779 20.2006 0.626127 15.2056C-0.348495 4.66607 4.25634 1.44912 13.8007 0.158847Z" fill="#8130C0"/>
<path d="M73.8461 10.3823C82.6536 9.78896 90.2684 16.4736 90.8224 25.2899C91.379 34.106 84.6643 41.6941 75.8491 42.2117C67.0904 42.7265 59.5627 36.0586 59.0087 27.2954C58.4573 18.5324 65.0899 10.9717 73.8461 10.3823ZM77.6343 34.0423C82.1073 31.0997 84.1001 26.1452 81.0172 21.3852C79.9195 19.6618 78.16 18.4657 76.1544 18.0777C74.9976 17.856 73.7281 17.9643 72.5611 18.1131C66.5723 20.7488 66.4056 31.9596 72.7278 34.3159C74.5924 35.011 75.8338 34.5812 77.6343 34.0423Z" fill="#8130C0"/>
<path d="M123.667 10.5137C132.316 9.26394 140.356 15.2264 141.675 23.8708C142.995 32.5155 137.102 40.6074 128.474 41.9985C119.743 43.4058 111.541 37.4253 110.207 28.6806C108.871 19.9356 114.916 11.778 123.667 10.5137ZM127.209 34.7034C129.638 33.5117 132.221 32.0751 132.988 29.2834C134.578 23.4926 131.505 17.2701 124.806 18.0751C122.287 18.5778 121.887 18.6861 120.269 20.9469C116.393 26.3523 119.261 36.4882 127.209 34.7034Z" fill="#8130C0"/>
<path d="M203.33 10.606C206.074 10.5627 208.952 10.9176 211.686 11.2086C209.888 17.526 205.887 26.3603 203.543 32.6777C200.98 39.5871 198.267 45.9566 195.351 52.6935C193.609 53.1434 187.938 53.8937 186.6 52.7202C185.851 50.4348 190.303 44.6778 190.013 42.6919C189.859 41.6431 187.613 36.6139 187.028 35.2302C184.501 29.6686 182.637 25.0374 180.724 19.2448C179.803 16.4579 178.443 14.4594 177.625 11.196C180.005 10.7875 183.429 10.5047 185.735 11.3097C187.561 11.9479 188.451 15.8403 189.2 17.6237C191.319 22.6853 192.804 28.1263 195.035 33.1293C197.343 27.6639 198.962 21.0337 201.342 15.4902C202.065 13.8017 202.36 12.253 203.33 10.606Z" fill="#8130C0"/>
<path d="M39.5935 2.42276C42.1719 2.30652 45.2799 2.38247 47.9012 2.3876C47.8573 5.4067 47.7914 8.42528 47.7031 11.4434C50.4318 11.2365 53.2636 11.2894 56.0003 11.3258L55.9451 18.5824C53.3577 18.4136 50.3552 18.5819 47.6393 18.4698L47.6752 18.6707C48.3074 22.377 47.539 27.3605 48.0863 31.3809C48.9076 37.4161 54.9382 32.3522 56.229 35.6398C56.1118 36.8872 56.2098 39.5419 56.2213 40.8924C36.4383 45.3235 39.0624 32.6432 39.4432 18.3556C33.238 18.818 34.5004 16.7094 35.0087 11.4213C36.6307 11.207 37.73 11.2132 39.3732 11.2147C39.3948 8.28286 39.4681 5.35179 39.5935 2.42276Z" fill="#8130C0"/>
<path d="M56.229 35.6398C54.4503 35.979 48.9653 34.9641 47.4246 34.1083C47.0312 33.4298 47.1079 20.4098 47.1358 18.7239L47.6393 18.4698L47.6752 18.6707C48.3074 22.377 47.539 27.3605 48.0863 31.381C48.9076 37.4161 54.9382 32.3523 56.229 35.6398Z" fill="#8130C0"/>
<path d="M96.6624 0.560732C99.8582 0.541999 102.054 0.354409 105.26 0.751652C104.459 13.5802 105.162 26.9522 105.19 39.8082C105.19 40.4503 105.28 40.7192 104.89 41.2722C102.597 41.5227 98.8502 41.467 96.547 41.3887C96.3444 38.4002 96.6445 33.4187 96.6163 30.1463C96.447 20.2851 96.4624 10.4215 96.6624 0.560732Z" fill="#8130C0"/>
</svg>
